<svg xmlns="http://www.w3.org/2000/svg" version="1.1" xmlns:xlink="http://www.w3.org/1999/xlink" xmlns:svgjs="http://svgjs.dev/svgjs" width="1000" height="601" viewBox="0 0 1000 601"><g transform="matrix(1,0,0,1,-0.6060605010583799,0.5135850600406116)"><svg viewBox="0 0 396 238" data-background-color="#1ebbd7" preserveAspectRatio="xMidYMid meet" height="601" width="1000" xmlns="http://www.w3.org/2000/svg" xmlns:xlink="http://www.w3.org/1999/xlink"><g id="tight-bounds" transform="matrix(1,0,0,1,0.24000004158097,-0.20338310197946896)"><svg viewBox="0 0 395.52 238.40676620395894" height="238.40676620395894" width="395.52"><g><svg viewBox="0 0 395.52 238.40676620395894" height="238.40676620395894" width="395.52"><g transform="matrix(1,0,0,1,0,174.3864048172923)"><svg viewBox="0 0 395.52 64.02036138666665" height="64.02036138666665" width="395.52"><g><svg viewBox="0 0 395.52 64.02036138666665" height="64.02036138666665" width="395.52"><g><svg viewBox="0 0 395.52 34.5295238095238" height="34.5295238095238" width="395.52"><g transform="matrix(1,0,0,1,0,0)"><svg width="395.52" viewBox="1.9000000953674316 -37.95000076293945 453.57000732421875 39.60000228881836" height="34.5295238095238" data-palette-color="#010c80"><g class="undefined-text-0" data-fill-palette-color="primary" id="text-0"><path d="M1.9-18.1L1.9-18.1Q1.9-21.85 3.35-25.23 4.8-28.6 7.3-31.15 9.8-33.7 13.15-35.18 16.5-36.65 20.35-36.65L20.35-36.65Q24.15-36.65 27.53-35.18 30.9-33.7 33.45-31.15 36-28.6 37.48-25.23 38.95-21.85 38.95-18.1L38.95-18.1Q38.95-14.25 37.6-10.9 36.25-7.55 33.85-4.75L33.85-4.75 40.1-5.2 40.1 0 24.25 0Q23.25 0.2 22.3 0.3 21.35 0.4 20.35 0.4L20.35 0.4Q16.5 0.4 13.15-1.05 9.8-2.5 7.3-5.03 4.8-7.55 3.35-10.9 1.9-14.25 1.9-18.1ZM7.35-18.05L7.35-18.05Q7.35-15.3 8.38-12.88 9.4-10.45 11.18-8.65 12.95-6.85 15.35-5.8 17.75-4.75 20.5-4.75L20.5-4.75Q23.2-4.75 25.58-5.8 27.95-6.85 29.73-8.65 31.5-10.45 32.52-12.88 33.55-15.3 33.55-18.1L33.55-18.1Q33.55-20.85 32.5-23.28 31.45-25.7 29.68-27.5 27.9-29.3 25.5-30.35 23.1-31.4 20.4-31.4L20.4-31.4Q17.7-31.4 15.3-30.35 12.9-29.3 11.15-27.5 9.4-25.7 8.38-23.25 7.35-20.8 7.35-18.05ZM58.95 0.4L58.95 0.4Q56.05 0.4 53.55-0.55 51.05-1.5 49.17-3.23 47.3-4.95 46.22-7.38 45.15-9.8 45.15-12.8L45.15-12.8 45.15-36.25 50.65-36.25 50.65-12.95Q50.65-11.2 51.27-9.73 51.9-8.25 53.02-7.13 54.15-6 55.65-5.38 57.15-4.75 58.95-4.75L58.95-4.75Q60.7-4.75 62.22-5.38 63.75-6 64.87-7.13 66-8.25 66.65-9.73 67.3-11.2 67.3-12.95L67.3-12.95 67.3-36.25 72.8-36.25 72.8-12.8Q72.8-9.8 71.72-7.38 70.65-4.95 68.77-3.23 66.9-1.5 64.37-0.55 61.85 0.4 58.95 0.4ZM81.3 0L81.3-36.25 86.75-36.25 86.75 0 81.3 0ZM120.24-7.55L122.54-2.6Q121.94-2.15 120.87-1.63 119.79-1.1 118.34-0.65 116.89-0.2 115.12 0.1 113.34 0.4 111.34 0.4L111.34 0.4Q107.09 0.4 103.72-1.07 100.34-2.55 97.99-5.05 95.64-7.55 94.39-10.85 93.14-14.15 93.14-17.85L93.14-17.85Q93.14-21.95 94.62-25.4 96.09-28.85 98.64-31.35 101.19-33.85 104.62-35.25 108.04-36.65 111.89-36.65L111.89-36.65Q113.34-36.65 114.84-36.45 116.34-36.25 117.67-35.9 118.99-35.55 120.02-35.08 121.04-34.6 121.59-34.1L121.59-34.1Q121.19-33.5 120.97-33.1 120.74-32.7 120.49-32.27 120.24-31.85 119.94-31.3 119.64-30.75 119.14-29.85L119.14-29.85Q118.49-30.3 117.62-30.6 116.74-30.9 115.79-31.1 114.84-31.3 113.87-31.4 112.89-31.5 112.09-31.5L112.09-31.5Q109.19-31.5 106.72-30.43 104.24-29.35 102.44-27.53 100.64-25.7 99.62-23.3 98.59-20.9 98.59-18.3L98.59-18.3Q98.59-15.75 99.57-13.4 100.54-11.05 102.27-9.2 103.99-7.35 106.42-6.25 108.84-5.15 111.74-5.15L111.74-5.15Q113.29-5.15 114.74-5.45 116.19-5.75 117.37-6.15 118.54-6.55 119.32-6.95 120.09-7.35 120.24-7.55L120.24-7.55ZM155.79 0L149.04 0Q147.29-2.25 145.69-4.3 144.09-6.35 142.54-8.4 140.99-10.45 139.41-12.55 137.84-14.65 136.09-16.9L136.09-16.9Q135.44-16.2 134.84-15.63 134.24-15.05 133.54-14.45L133.54-14.45Q133.54-10.6 133.56-7.23 133.59-3.85 133.59 0L133.59 0 127.54 0 127.54-36.25 133.59-36.25 133.59-22.7Q133.59-22.25 133.52-21.83 133.44-21.4 133.44-20.95L133.44-20.95Q133.69-21.3 133.94-21.58 134.19-21.85 134.44-22.25L134.44-22.25Q137.99-25.6 141.29-29.23 144.59-32.85 148.14-36.25L148.14-36.25 155.09-36.25Q151.34-32.35 147.67-28.4 143.99-24.45 140.24-20.55L140.24-20.55Q142.34-17.85 144.27-15.33 146.19-12.8 148.06-10.3 149.94-7.8 151.84-5.25 153.74-2.7 155.79 0L155.79 0ZM159.89 0L159.89-37.85Q160.34-37.15 161.76-35.18 163.19-33.2 165.06-30.6 166.94-28 169.04-25.08 171.14-22.15 172.99-19.58 174.84-17 176.21-15.1 177.59-13.2 178.04-12.6L178.04-12.6Q178.19-12.85 178.99-13.95 179.79-15.05 180.96-16.7 182.14-18.35 183.64-20.43 185.14-22.5 186.71-24.68 188.29-26.85 189.81-29 191.34-31.15 192.64-32.93 193.94-34.7 194.86-36.02 195.79-37.35 196.19-37.85L196.19-37.85 196.19 0 190.39 0 190.39-20.3Q190.39-20.7 190.46-21.15 190.54-21.6 190.54-21.8L190.54-21.8Q190.09-21.2 189.11-19.78 188.14-18.35 186.86-16.53 185.59-14.7 184.19-12.68 182.79-10.65 181.54-8.85 180.29-7.05 179.34-5.68 178.39-4.3 178.04-3.75L178.04-3.75Q177.69-4.2 176.66-5.63 175.64-7.05 174.26-8.95 172.89-10.85 171.36-13 169.84-15.15 168.54-17 167.24-18.85 166.29-20.18 165.34-21.5 165.19-21.8L165.19-21.8Q165.19-21.6 165.26-21.15 165.34-20.7 165.34-20.3L165.34-20.3 165.34 0 159.89 0ZM229.58 0L205.08 0 205.08-36.25 228.88-36.25 228.88-31.3 210.58-31.3 210.58-20.7 226.88-20.7 226.88-15.65 210.58-15.65 210.58-5.05 229.58-5.05 229.58 0ZM256.68-34.25L256.68-34.25 254.73-29.8Q252.68-30.55 250.66-31 248.63-31.45 246.78-31.45L246.78-31.45Q243.63-31.45 241.76-30.15 239.88-28.85 239.88-26.85L239.88-26.85Q239.88-25.15 241.23-24.13 242.58-23.1 244.58-22.28 246.58-21.45 248.93-20.63 251.28-19.8 253.28-18.5 255.28-17.2 256.63-15.23 257.98-13.25 257.98-10.15L257.98-10.15Q257.98-7.75 257.11-5.83 256.23-3.9 254.51-2.5 252.78-1.1 250.21-0.35 247.63 0.4 244.18 0.4L244.18 0.4Q241.98 0.4 240.21 0.1 238.43-0.2 237.01-0.68 235.58-1.15 234.51-1.7 233.43-2.25 232.68-2.7L232.68-2.7 235.08-7.45Q237.08-6.3 239.53-5.6 241.98-4.9 243.98-4.9L243.98-4.9Q244.98-4.9 246.46-5.15 247.93-5.4 249.28-6.03 250.63-6.65 251.61-7.7 252.58-8.75 252.58-10.35L252.58-10.35Q252.58-11.8 251.81-12.83 251.03-13.85 249.76-14.63 248.48-15.4 246.86-16.03 245.23-16.65 243.53-17.32 241.83-18 240.21-18.75 238.58-19.5 237.31-20.58 236.03-21.65 235.26-23.08 234.48-24.5 234.48-26.5L234.48-26.5Q234.48-28.35 235.23-30.15 235.98-31.95 237.48-33.35 238.98-34.75 241.21-35.6 243.43-36.45 246.38-36.45L246.38-36.45Q248.18-36.45 249.91-36.15 251.63-35.85 253.03-35.48 254.43-35.1 255.41-34.75 256.38-34.4 256.68-34.25ZM284.93-34.25L284.93-34.25 282.98-29.8Q280.93-30.55 278.9-31 276.88-31.45 275.03-31.45L275.03-31.45Q271.88-31.45 270-30.15 268.13-28.85 268.13-26.85L268.13-26.85Q268.13-25.15 269.48-24.13 270.83-23.1 272.83-22.28 274.83-21.45 277.18-20.63 279.53-19.8 281.53-18.5 283.53-17.2 284.88-15.23 286.23-13.25 286.23-10.15L286.23-10.15Q286.23-7.75 285.35-5.83 284.48-3.9 282.75-2.5 281.03-1.1 278.45-0.35 275.88 0.4 272.43 0.4L272.43 0.4Q270.23 0.4 268.45 0.1 266.68-0.2 265.25-0.68 263.83-1.15 262.75-1.7 261.68-2.25 260.93-2.7L260.93-2.7 263.33-7.45Q265.33-6.3 267.78-5.6 270.23-4.9 272.23-4.9L272.23-4.9Q273.23-4.9 274.7-5.15 276.18-5.4 277.53-6.03 278.88-6.65 279.85-7.7 280.83-8.75 280.83-10.35L280.83-10.35Q280.83-11.8 280.05-12.83 279.28-13.85 278-14.63 276.73-15.4 275.1-16.03 273.48-16.65 271.78-17.32 270.08-18 268.45-18.75 266.83-19.5 265.55-20.58 264.28-21.65 263.5-23.08 262.73-24.5 262.73-26.5L262.73-26.5Q262.73-28.35 263.48-30.15 264.23-31.95 265.73-33.35 267.23-34.75 269.45-35.6 271.68-36.45 274.63-36.45L274.63-36.45Q276.43-36.45 278.15-36.15 279.88-35.85 281.28-35.48 282.68-35.1 283.65-34.75 284.63-34.4 284.93-34.25ZM316.93 0L292.43 0 292.43-36.25 316.23-36.25 316.23-31.3 297.93-31.3 297.93-20.7 314.23-20.7 314.23-15.65 297.93-15.65 297.93-5.05 316.93-5.05 316.93 0ZM349.63-36.25L355.07-36.25 355.07 1.65Q354.38 0.75 352.38-1.25 350.38-3.25 347.77-5.85 345.18-8.45 342.25-11.3 339.32-14.15 336.72-16.73 334.13-19.3 332.18-21.33 330.22-23.35 329.57-24.2L329.57-24.2 328.63-25.5 328.77-23.9 328.77 0 323.27 0 323.27-37.95Q323.82-37.25 325.1-35.95 326.38-34.65 328.1-32.93 329.82-31.2 331.9-29.2 333.97-27.2 336.1-25.15 338.22-23.1 340.3-21.13 342.38-19.15 344.1-17.45 345.82-15.75 347.07-14.45 348.32-13.15 348.82-12.5L348.82-12.5 349.77-11.1 349.63-12.8 349.63-36.25ZM378.92-17.35L391.02-17.35 391.02-2.15Q388.92-0.95 386.02-0.28 383.12 0.4 380.12 0.4L380.12 0.4Q375.82 0.4 372.4-0.95 368.97-2.3 366.52-4.67 364.07-7.05 362.77-10.3 361.47-13.55 361.47-17.4L361.47-17.4Q361.47-21.65 363-25.18 364.52-28.7 367.15-31.25 369.77-33.8 373.2-35.23 376.62-36.65 380.47-36.65L380.47-36.65Q383.07-36.65 385.92-35.98 388.77-35.3 390.87-34.05L390.87-34.05 388.22-29.6Q387.47-30.05 386.5-30.4 385.52-30.75 384.47-31 383.42-31.25 382.37-31.38 381.32-31.5 380.37-31.5L380.37-31.5Q377.72-31.5 375.27-30.45 372.82-29.4 370.97-27.55 369.12-25.7 368.02-23.2 366.92-20.7 366.92-17.8L366.92-17.8Q366.92-15.15 367.9-12.8 368.87-10.45 370.62-8.65 372.37-6.85 374.82-5.8 377.27-4.75 380.22-4.75L380.22-4.75Q381.37-4.75 382.95-4.98 384.52-5.2 385.97-5.75L385.97-5.75 385.97-12.65 378.92-12.65 378.92-17.35ZM422.72 0L398.22 0 398.22-36.25 422.02-36.25 422.02-31.3 403.72-31.3 403.72-20.7 420.02-20.7 420.02-15.65 403.72-15.65 403.72-5.05 422.72-5.05 422.72 0ZM434.57 0L429.07 0 429.07-36.25 438.97-36.25Q441.82-36.25 444.19-35.5 446.57-34.75 448.29-33.27 450.02-31.8 450.97-29.68 451.92-27.55 451.92-24.8L451.92-24.8Q451.92-23.3 451.62-21.83 451.32-20.35 450.64-18.98 449.97-17.6 448.92-16.43 447.87-15.25 446.37-14.45L446.37-14.45Q448.37-11.3 450.72-7.48 453.07-3.65 455.47 0L455.47 0 448.92 0Q447.92-1.55 446.84-3.25 445.77-4.95 444.69-6.63 443.62-8.3 442.59-9.93 441.57-11.55 440.67-12.95L440.67-12.95 439.67-12.95 434.57-12.95 434.57 0ZM434.57-31.15L434.57-18.1 439.52-18.1Q441.52-18.1 442.87-18.78 444.22-19.45 444.99-20.45 445.77-21.45 446.09-22.6 446.42-23.75 446.42-24.7L446.42-24.7Q446.42-25.65 446.09-26.78 445.77-27.9 444.97-28.88 444.17-29.85 442.84-30.5 441.52-31.15 439.57-31.15L439.57-31.15 434.57-31.15Z" fill="#010c80" data-fill-palette-color="primary"></path></g></svg></g></svg></g><g transform="matrix(1,0,0,1,0,42.68111567238094)"><svg viewBox="0 0 395.52 21.33924571428571" height="21.33924571428571" width="395.52"><g transform="matrix(1,0,0,1,0,0)"><svg width="395.52" viewBox="0.75 -45.150001525878906 844.260009765625 45.55000305175781" height="21.33924571428571" data-palette-color="#77d4fc"><path d="M9.1 0L0.75 0 4.9-42.95 19.45-42.95 23.55 0 15.4 0 14.8-6.95 9.6-6.95 9.1 0ZM11.85-35.65L10.25-13.8 14.15-13.8 12.25-35.65 11.85-35.65ZM45.95 0L37.05 0 37.05-43.2 45.95-43.2 45.95 0ZM69.39 0L60.49 0 60.49-43.2 69.39-43.2 69.39 0ZM115.58 0L106.68 0 106.68-43.2 115.58-43.2 115.58 0ZM140.38 0.4Q134.73 0.4 132.28-2.7 129.83-5.8 129.83-11.95L129.83-11.95 129.83-26.65Q129.83-31.7 132.73-34.35 135.63-37 140.83-37L140.83-37Q151.38-37 151.38-26.65L151.38-26.65 151.38-24Q151.38-20 151.28-17.5L151.28-17.5 138.58-17.5 138.58-10.4Q138.58-8.5 138.98-7.43 139.38-6.35 140.68-6.35L140.68-6.35Q141.68-6.35 142.1-6.95 142.53-7.55 142.6-8.33 142.68-9.1 142.68-10.6L142.68-10.6 142.68-14.15 151.38-14.15 151.38-12.05Q151.38-5.65 148.9-2.63 146.43 0.4 140.38 0.4L140.38 0.4ZM138.53-21.85L142.68-21.85 142.68-26.55Q142.68-30.5 140.73-30.5L140.73-30.5Q138.53-30.5 138.53-26.55L138.53-26.55 138.53-21.85ZM173.12 0.4Q169.67 0.4 168.37-1.05 167.07-2.5 167.07-5.7L167.07-5.7 167.07-28.55 164.62-28.55 164.62-35.2 167.07-35.2 167.07-42.95 175.57-42.95 175.57-35.2 178.07-35.2 178.07-28.55 175.57-28.55 175.57-8Q175.57-7.05 175.72-6.6 175.87-6.15 176.52-6.15L176.52-6.15Q177.02-6.15 177.47-6.2 177.92-6.25 178.07-6.25L178.07-6.25 178.07-0.25Q177.32-0.05 175.9 0.18 174.47 0.4 173.12 0.4L173.12 0.4ZM199.42 0.4Q195.97 0.4 194.67-1.05 193.37-2.5 193.37-5.7L193.37-5.7 193.37-28.55 190.92-28.55 190.92-35.2 193.37-35.2 193.37-42.95 201.87-42.95 201.87-35.2 204.37-35.2 204.37-28.55 201.87-28.55 201.87-8Q201.87-7.05 202.02-6.6 202.17-6.15 202.82-6.15L202.82-6.15Q203.32-6.15 203.77-6.2 204.22-6.25 204.37-6.25L204.37-6.25 204.37-0.25Q203.62-0.05 202.19 0.18 200.77 0.4 199.42 0.4L199.42 0.4ZM228.41 0.4Q222.76 0.4 220.31-2.7 217.86-5.8 217.86-11.95L217.86-11.95 217.86-26.65Q217.86-31.7 220.76-34.35 223.66-37 228.86-37L228.86-37Q239.41-37 239.41-26.65L239.41-26.65 239.41-24Q239.41-20 239.31-17.5L239.31-17.5 226.61-17.5 226.61-10.4Q226.61-8.5 227.01-7.43 227.41-6.35 228.71-6.35L228.71-6.35Q229.71-6.35 230.14-6.95 230.56-7.55 230.64-8.33 230.71-9.1 230.71-10.6L230.71-10.6 230.71-14.15 239.41-14.15 239.41-12.05Q239.41-5.65 236.94-2.63 234.46 0.4 228.41 0.4L228.41 0.4ZM226.56-21.85L230.71-21.85 230.71-26.55Q230.71-30.5 228.76-30.5L228.76-30.5Q226.56-30.5 226.56-26.55L226.56-26.55 226.56-21.85ZM253.61 0L253.61-36.6 262.36-36.6 262.36-32.55Q263.01-34.7 264.63-35.88 266.26-37.05 268.66-37.05L268.66-37.05 268.66-29.75Q266.81-29.75 264.58-29.23 262.36-28.7 262.36-28L262.36-28 262.36 0 253.61 0ZM291.9 0.4Q281.05 0.4 281.05-10.6L281.05-10.6 281.1-13.5 289.85-13.5 289.9-9.2Q289.9-7.9 290.4-7.23 290.9-6.55 292.05-6.55L292.05-6.55Q293.8-6.55 293.8-9.4L293.8-9.4Q293.8-11.5 292.98-12.7 292.15-13.9 290.35-15.25L290.35-15.25 285.7-18.85Q283.3-20.7 282.25-22.68 281.2-24.65 281.2-28.25L281.2-28.25Q281.2-31.05 282.68-33.02 284.15-35 286.6-36 289.05-37 292.05-37L292.05-37Q302.7-37 302.7-26.4L302.7-26.4 302.7-25.7 293.65-25.7 293.65-27.1Q293.65-28.4 293.23-29.33 292.8-30.25 291.8-30.25L291.8-30.25Q290.9-30.25 290.43-29.73 289.95-29.2 289.95-28.3L289.95-28.3Q289.95-26.3 291.5-25.2L291.5-25.2 296.9-21.25Q299.8-19.1 301.35-16.57 302.9-14.05 302.9-10.2L302.9-10.2Q302.9-5.1 300-2.35 297.1 0.4 291.9 0.4L291.9 0.4ZM352.94 0L343.24 0 338.79-36.6 346.29-36.6 348.74-16.95 350.84-36.6 358.49-36.6 360.99-16.95 363.04-36.6 371.29-36.6 366.59 0 357.84 0 355.24-20.8 352.94 0ZM393.94-39.05L385.19-39.05 385.19-45.15 393.94-45.15 393.94-39.05ZM393.94 0L385.19 0 385.19-36.6 393.94-36.6 393.94 0ZM417.33 0L408.43 0 408.43-43.2 417.33-43.2 417.33 0ZM440.78 0L431.88 0 431.88-43.2 440.78-43.2 440.78 0ZM492.22 0.4Q488.62 0.4 487.07-3.9L487.07-3.9 487.07 0 478.07 0 478.07-43.2 487.07-43.2 487.07-34.85Q489.17-37 491.97-37L491.97-37Q496.22-37 498.07-34.48 499.92-31.95 499.92-27.2L499.92-27.2 499.92-9.55Q499.92-5.05 498.02-2.33 496.12 0.4 492.22 0.4L492.22 0.4ZM489.27-6.4Q490.17-6.4 490.54-6.98 490.92-7.55 490.99-8.43 491.07-9.3 491.07-11.15L491.07-11.15 491.07-26.4Q491.07-28.35 490.72-29.3 490.37-30.25 489.22-30.25L489.22-30.25Q487.97-30.25 487.52-29.3 487.07-28.35 487.07-26.5L487.07-26.5 487.07-11.15Q487.07-8.75 487.47-7.58 487.87-6.4 489.27-6.4L489.27-6.4ZM524.41 0.4Q518.76 0.4 516.31-2.7 513.86-5.8 513.86-11.95L513.86-11.95 513.86-26.65Q513.86-31.7 516.76-34.35 519.66-37 524.86-37L524.86-37Q535.41-37 535.41-26.65L535.41-26.65 535.41-24Q535.41-20 535.31-17.5L535.31-17.5 522.61-17.5 522.61-10.4Q522.61-8.5 523.01-7.43 523.41-6.35 524.71-6.35L524.71-6.35Q525.71-6.35 526.14-6.95 526.56-7.55 526.64-8.33 526.71-9.1 526.71-10.6L526.71-10.6 526.71-14.15 535.41-14.15 535.41-12.05Q535.41-5.65 532.94-2.63 530.46 0.4 524.41 0.4L524.41 0.4ZM522.56-21.85L526.71-21.85 526.71-26.55Q526.71-30.5 524.76-30.5L524.76-30.5Q522.56-30.5 522.56-26.55L522.56-26.55 522.56-21.85ZM579.55 0.4Q576.35 0.4 574.73-1.13 573.1-2.65 572.58-5.18 572.05-7.7 572.05-11.65L572.05-11.65 572.15-28.15Q572.15-32.05 574.13-34.52 576.1-37 579.7-37L579.7-37Q583.25-37 585-34.65L585-34.65 585-43.2 593.75-43.2 593.75 0 585 0 585-3.9Q584.25-1.75 582.98-0.68 581.7 0.4 579.55 0.4L579.55 0.4ZM582.9-6.45Q584.2-6.45 584.6-7.73 585-9 585-11.15L585-11.15 585-12.7 585-26.45Q585-28.05 584.55-29.15 584.1-30.25 582.95-30.25L582.95-30.25Q581.65-30.25 581.23-29.23 580.8-28.2 580.8-26.45L580.8-26.45 580.8-11.05Q580.8-6.45 582.9-6.45L582.9-6.45ZM618.55 0.4Q612.9 0.4 610.45-2.7 608-5.8 608-11.95L608-11.95 608-26.65Q608-31.7 610.9-34.35 613.8-37 619-37L619-37Q629.55-37 629.55-26.65L629.55-26.65 629.55-24Q629.55-20 629.45-17.5L629.45-17.5 616.75-17.5 616.75-10.4Q616.75-8.5 617.15-7.43 617.55-6.35 618.85-6.35L618.85-6.35Q619.85-6.35 620.27-6.95 620.7-7.55 620.77-8.33 620.85-9.1 620.85-10.6L620.85-10.6 620.85-14.15 629.55-14.15 629.55-12.05Q629.55-5.65 627.07-2.63 624.6 0.4 618.55 0.4L618.55 0.4ZM616.7-21.85L620.85-21.85 620.85-26.55Q620.85-30.5 618.9-30.5L618.9-30.5Q616.7-30.5 616.7-26.55L616.7-26.55 616.7-21.85ZM652.64 0L643.74 0 643.74-43.2 652.64-43.2 652.64 0ZM675.89-39.05L667.14-39.05 667.14-45.15 675.89-45.15 675.89-39.05ZM675.89 0L667.14 0 667.14-36.6 675.89-36.6 675.89 0ZM705.18 0L695.03 0 689.18-36.6 697.93-36.6 699.73-18.1 700.03-12.15 700.38-18.15 702.38-36.6 711.13-36.6 705.18 0ZM734.73 0.4Q729.08 0.4 726.63-2.7 724.18-5.8 724.18-11.95L724.18-11.95 724.18-26.65Q724.18-31.7 727.08-34.35 729.98-37 735.18-37L735.18-37Q745.73-37 745.73-26.65L745.73-26.65 745.73-24Q745.73-20 745.63-17.5L745.63-17.5 732.93-17.5 732.93-10.4Q732.93-8.5 733.33-7.43 733.73-6.35 735.03-6.35L735.03-6.35Q736.03-6.35 736.45-6.95 736.88-7.55 736.95-8.33 737.03-9.1 737.03-10.6L737.03-10.6 737.03-14.15 745.73-14.15 745.73-12.05Q745.73-5.65 743.25-2.63 740.78 0.4 734.73 0.4L734.73 0.4ZM732.88-21.85L737.03-21.85 737.03-26.55Q737.03-30.5 735.08-30.5L735.08-30.5Q732.88-30.5 732.88-26.55L732.88-26.55 732.88-21.85ZM759.92 0L759.92-36.6 768.67-36.6 768.67-32.55Q769.32-34.7 770.95-35.88 772.57-37.05 774.97-37.05L774.97-37.05 774.97-29.75Q773.12-29.75 770.9-29.23 768.67-28.7 768.67-28L768.67-28 768.67 0 759.92 0ZM798.42 0.4Q792.77 0.4 790.32-2.7 787.87-5.8 787.87-11.95L787.87-11.95 787.87-26.65Q787.87-31.7 790.77-34.35 793.67-37 798.87-37L798.87-37Q809.42-37 809.42-26.65L809.42-26.65 809.42-24Q809.42-20 809.32-17.5L809.32-17.5 796.62-17.5 796.62-10.4Q796.62-8.5 797.02-7.43 797.42-6.35 798.72-6.35L798.72-6.35Q799.72-6.35 800.14-6.95 800.57-7.55 800.64-8.33 800.72-9.1 800.72-10.6L800.72-10.6 800.72-14.15 809.42-14.15 809.42-12.05Q809.42-5.65 806.94-2.63 804.47 0.4 798.42 0.4L798.42 0.4ZM796.57-21.85L800.72-21.85 800.72-26.55Q800.72-30.5 798.77-30.5L798.77-30.5Q796.57-30.5 796.57-26.55L796.57-26.55 796.57-21.85ZM830.81 0.4Q827.61 0.4 825.99-1.13 824.36-2.65 823.84-5.18 823.31-7.7 823.31-11.65L823.31-11.65 823.41-28.15Q823.41-32.05 825.39-34.52 827.36-37 830.96-37L830.96-37Q834.51-37 836.26-34.65L836.26-34.65 836.26-43.2 845.01-43.2 845.01 0 836.26 0 836.26-3.9Q835.51-1.75 834.24-0.68 832.96 0.4 830.81 0.4L830.81 0.4ZM834.16-6.45Q835.46-6.45 835.86-7.73 836.26-9 836.26-11.15L836.26-11.15 836.26-12.7 836.26-26.45Q836.26-28.05 835.81-29.15 835.36-30.25 834.21-30.25L834.21-30.25Q832.91-30.25 832.49-29.23 832.06-28.2 832.06-26.45L832.06-26.45 832.06-11.05Q832.06-6.45 834.16-6.45L834.16-6.45Z" opacity="1" transform="matrix(1,0,0,1,0,0)" fill="#77d4fc" class="undefined-text-1" data-fill-palette-color="secondary" id="text-1"></path></svg></g></svg></g></svg></g></svg></g><g transform="matrix(1,0,0,1,118.71838945421099,0)"><svg viewBox="0 0 158.083221091578 158.083221091578" height="158.083221091578" width="158.083221091578"><g><svg></svg></g><g id="icon-0"><svg viewBox="0 0 158.083221091578 158.083221091578" height="158.083221091578" width="158.083221091578"><g><path d="M0 79.042c0-43.653 35.388-79.042 79.042-79.042 43.653 0 79.042 35.388 79.041 79.042 0 43.653-35.388 79.042-79.041 79.041-43.653 0-79.042-35.388-79.042-79.041zM79.042 154.969c41.934 0 75.928-33.994 75.927-75.927 0-41.934-33.994-75.928-75.927-75.928-41.934 0-75.928 33.994-75.928 75.928 0 41.934 33.994 75.928 75.928 75.927z" data-fill-palette-color="accent" fill="#00ffef" stroke="transparent"></path></g><g transform="matrix(1,0,0,1,31.278359686197355,43.219172401095264)"><svg viewBox="0 0 95.52650171918329 71.64487628938747" height="71.64487628938747" width="95.52650171918329"><g><svg xmlns="http://www.w3.org/2000/svg" xmlns:xlink="http://www.w3.org/1999/xlink" version="1.1" x="0" y="0" viewBox="0 0 100 75" style="enable-background:new 0 0 100 75;" xml:space="preserve" height="71.64487628938747" width="95.52650171918329" class="icon-c-0" data-fill-palette-color="accent" id="c-0"><polygon points="50.244,35.803 100,12.244 100,0 0,0 0,12.207 " fill="#00ffef" data-fill-palette-color="accent"></polygon><polygon points="50.269,49.621 0,26.001 0,75 100,75 100,26.074 " fill="#00ffef" data-fill-palette-color="accent"></polygon></svg></g></svg></g></svg></g></svg></g><g></g></svg></g><defs></defs></svg><rect width="395.52" height="238.40676620395894" fill="none" stroke="none" visibility="hidden"></rect></g></svg></g></svg>